{"title":"22 Mei, 22nd of MAY 2010 DVDrip Dutch Klam","uid":6657690,"size":969469868,"categoryP":"video","categoryS":"movies","magnet":"?xt=urn:btih:245c42dfa2eb92cf5052dedddb697da755fd7ae1&amp;dn=22+Mei%2C+22nd+of+MAY+2010+DVDrip+Dutch+Klam&amp;tr=udp%3A%2F%2Ftracker.openbittorrent.com%3A80&amp;tr=udp%3A%2F%2Fopen.demonii.com%3A1337&amp;tr=udp%3A%2F%2Ftracker.coppersurfer.tk%3A6969&amp;tr=udp%3A%2F%2Fexodus.desync.com%3A6969","seeders":1,"leechers":0,"uploader":"Klambake","files":-1,"time":1315384094,"description":"With: Sam Louwyck, Titus De Voogdt and Steffi Peeters\n\nNederlands gesproken,\nSam, een wat troosteloze veertiger, werkt als bewakingsagent in een winkelcentrum. Zijn leven wordt door elkaar geschud wanneer er op een dag een jongen met een rugzak zichzelf in het winkelcentrum tot ontploffing brengt.\n\nDutch spoken,\nA bomb explodes in a shopping mall. Sam the security agent tries to save the victims, but at the end he runs off. Later he encounters all the people he saved. They all think that somehow he is responsible for what happened. \n\n------------------ Dutch Friends ------------------\nYou can find my Friends at: http://www.Film-Test.nl \n------ They got my dutchs subs ---- and more ------\n\nGeneral:\n\nComplete name                    : 22nd of MAY\\22 Mei.avi\nFormat                           : AVI\nFormat/Info                      : Audio Video Interleave\nFile size                        : 924 MiB\nDuration                         : 1h 28mn\nOverall bit rate                 : 1 461 Kbps\n\nVideo:\n\nFormat                           : MPEG-4 Visual\nFormat profile                   : Simple@L3\nFormat settings, BVOP            : No\nFormat settings, QPel            : No\nFormat settings, GMC             : No warppoints\nFormat settings, Matrix          : Default (H.263)\nCodec ID                         : XVID\nCodec ID/Hint                    : XviD\nDuration                         : 1h 28mn\nBit rate                         : 1 008 Kbps\nWidth                            : 652 pixels\nHeight                           : 352 pixels\nDisplay aspect ratio             : 1.852\nFrame rate                       : 25.000 fps\nColor space                      : YUV\nChroma subsampling               : 4:2:0\nBit depth                        : 8 bits\nScan type                        : Progressive\nBits/(Pixel*Frame)               : 0.176\nStream size                      : 638 MiB (69%)\nWriting library                  : XviD 1.1.2 (UTC 2006-11-01)\n\nAudio:\n\nFormat                           : AC-3\nFormat/Info                      : Audio Coding 3\nMode extension                   : CM (complete main)\nCodec ID                         : 2000\nDuration                         : 1h 27mn\nBit rate mode                    : Constant\nBit rate                         : 448 Kbps\nChannel(s)                       : 6 channels\nChannel positions                : Front: L C R, Side: L R, LFE\nSampling rate                    : 48.0 KHz\nBit depth                        : 16 bits\nStream size                      : 280 MiB (30%)\nAlignment                        : Aligned on interleaves\nInterleave, duration             : 32 ms (0.81 video frame)\nInterleave, preload duration     : 1248 ms\n\n\n","torrent":{"xt":"urn:btih:245c42dfa2eb92cf5052dedddb697da755fd7ae1","amp;dn":"22+Mei%2C+22nd+of+MAY+2010+DVDrip+Dutch+Klam","amp;tr":["udp%3A%2F%2Ftracker.openbittorrent.com%3A80","udp%3A%2F%2Fopen.demonii.com%3A1337","udp%3A%2F%2Ftracker.coppersurfer.tk%3A6969","udp%3A%2F%2Fexodus.desync.com%3A6969"],"infoHash":"245c42dfa2eb92cf5052dedddb697da755fd7ae1","infoHashBuffer":{"type":"Buffer","data":[36,92,66,223,162,235,146,207,80,82,222,221,219,105,125,167,85,253,122,225]},"announce":[],"urlList":[]}}